<?xml version="1.0" encoding="iso-8859-1"?>
<!-- Uploaded to: SVG Repo, www.svgrepo.com, Generator: SVG Repo Mixer Tools -->
<svg version="1.1" id="Layer_1" xmlns="http://www.w3.org/2000/svg" xmlns:xlink="http://www.w3.org/1999/xlink" 
	 viewBox="0 0 512 512" xml:space="preserve">
<path style="fill:#220640;" d="M449.362,230.787v-26.531c0-38.137-16.6-74.28-45.544-99.158c-5.927-5.096-13.486-7.898-21.304-7.898
	h-32.681l34.276,237.779h32.681c31.586,0,57.191-25.605,57.191-57.191C473.981,258.308,464.235,241.114,449.362,230.787z"/>
<path style="fill:#440D80;" d="M416.681,230.787l-45.544-125.689c-5.927-5.096-13.486-7.898-21.304-7.898h-95.072
	c-7.817,0-15.375,2.802-21.305,7.898c-28.942,24.881-45.543,61.023-45.543,99.158v26.531c-14.873,10.327-24.62,27.522-24.62,47.001
	c0,31.586,25.605,57.191,57.191,57.191h163.622c31.586,0,57.191-25.605,57.191-57.191
	C441.3,258.308,431.554,241.114,416.681,230.787z"/>
<path style="fill:#2E84FF;" d="M503.83,378.553c0-24.065-19.508-43.574-43.574-43.574h-32.681l10.894,168.851h65.362V378.553z"/>
<path style="fill:#00B9FF;" d="M373.127,280.511H264.191l-87.17,54.468c-24.066,0-43.574,19.509-43.574,43.574V503.83h305.021
	V334.979h21.787L373.127,280.511z"/>
<path style="fill:#F99A25;" d="M433.021,80.859c0-18.05-14.632-32.681-32.681-32.681l-21.787,81.702h54.468V80.859z"/>
<path style="fill:#FFBE26;" d="M368.583,73.147c-0.573-5.667-0.924-11.109-0.924-15.956c0-27.074-21.947-49.021-49.021-49.021
	c-27.074,0-49.021,21.947-49.021,49.021v23.667c0-18.05-14.632-32.681-32.681-32.681s-32.681,14.631-32.681,32.681v49.021H400.34
	V48.178C384.949,48.178,372.05,58.821,368.583,73.147z"/>
<circle style="fill:#F21897;" cx="318.638" cy="57.191" r="16.34"/>
<path style="fill:#00B9FF;" d="M209.593,187.915c-18.05,0-32.681,14.632-32.681,32.681c0,18.05,14.631,32.681,32.681,32.681h109.045
	v-65.362H209.593z"/>
<g>
	<path style="fill:#2E84FF;" d="M427.683,187.915H318.638v65.362h109.045c18.05,0,32.681-14.631,32.681-32.681
		C460.364,202.547,445.732,187.915,427.683,187.915z"/>
	<path style="fill:#2E84FF;" d="M415.322,187.897l-37.259-24.517l-59.404,171.598c54.138-0.011,98.022-43.902,98.022-98.043v-32.681
		C416.681,198.682,416.216,193.217,415.322,187.897z"/>
</g>
<path style="fill:#00B9FF;" d="M384,236.936v-32.681c0-14.59-2.128-28.432-5.938-40.875l-50.912-33.501h-17.023l-88.172,58.018
	c-0.893,5.319-1.358,10.785-1.358,16.358v32.681c0,54.148,43.895,98.043,98.043,98.043C354.747,334.961,384,291.073,384,236.936z"/>
<path style="fill:#220640;" d="M415.322,187.897c-3.876-23.07-15.81-43.407-32.807-58.018h-55.365
	C342.283,163.693,376.006,187.363,415.322,187.897z"/>
<path style="fill:#440D80;" d="M310.127,129.879h-55.365c-16.997,14.612-28.932,34.948-32.807,58.018
	C261.27,187.363,294.994,163.693,310.127,129.879z"/>
<circle style="fill:#2E84FF;" cx="258.723" cy="236.936" r="16.34"/>
<path style="fill:#5B4FFF;" d="M384,221.546l-11.306,15.382l10.472,15.678c6.777-1.992,11.728-8.248,11.728-15.669
	C394.894,229.825,390.342,223.791,384,221.546z"/>
<path style="fill:#2E84FF;" d="M384,221.546c-1.706-0.605-3.534-0.95-5.447-0.95c-9.024,0-16.34,7.316-16.34,16.34
	c0,9.024,7.316,16.34,16.34,16.34c1.604,0,3.148-0.241,4.612-0.671c0.547-5.103,0.834-10.336,0.834-15.669V221.546z"/>
<path style="fill:#F99A25;" d="M435.745,113.54h-32.681v32.681h32.681c9.024,0,16.34-7.316,16.34-16.34
	S444.769,113.54,435.745,113.54z"/>
<path style="fill:#FFBE26;" d="M419.404,129.88c0-9.024-7.316-16.34-16.34-16.34H201.532c-9.024,0-16.34,7.316-16.34,16.34
	s7.316,16.34,16.34,16.34h201.532C412.088,146.221,419.404,138.905,419.404,129.88z"/>
<path style="fill:#FFFFFF;" d="M454.809,324.085c0-9.024-7.316-16.34-16.34-16.34s-16.34,7.316-16.34,16.34
	c-9.024,0-16.34,7.316-16.34,16.34c0,9.024,7.316,16.34,16.34,16.34c0,9.024,7.316,16.34,16.34,16.34s16.34-7.316,16.34-16.34
	c9.024,0,16.34-7.316,16.34-16.34C471.149,331.401,463.833,324.085,454.809,324.085z"/>
<path style="fill:#FFE9B7;" d="M454.809,389.447c0-9.024-7.316-16.34-16.34-16.34s-16.34,7.316-16.34,16.34
	c-9.024,0-16.34,7.316-16.34,16.34c0,9.024,7.316,16.34,16.34,16.34c0,9.024,7.316,16.34,16.34,16.34s16.34-7.316,16.34-16.34
	c9.024,0,16.34-7.316,16.34-16.34C471.149,396.763,463.833,389.447,454.809,389.447z"/>
<g>
	<path style="fill:#FFFFFF;" d="M454.809,454.809c0-9.024-7.316-16.34-16.34-16.34s-16.34,7.316-16.34,16.34
		c-9.024,0-16.34,7.316-16.34,16.34s7.316,16.34,16.34,16.34c0,9.024,7.316,16.34,16.34,16.34s16.34-7.316,16.34-16.34
		c9.024,0,16.34-7.316,16.34-16.34S463.833,454.809,454.809,454.809z"/>
	<path style="fill:#FFFFFF;" d="M215.149,324.085c0-9.024-7.316-16.34-16.34-16.34c-9.024,0-16.34,7.316-16.34,16.34
		c-9.024,0-16.34,7.316-16.34,16.34c0,9.024,7.316,16.34,16.34,16.34c0,9.024,7.316,16.34,16.34,16.34
		c9.024,0,16.34-7.316,16.34-16.34c9.024,0,16.34-7.316,16.34-16.34C231.489,331.401,224.173,324.085,215.149,324.085z"/>
</g>
<path style="fill:#FFE9B7;" d="M215.149,389.447c0-9.024-7.316-16.34-16.34-16.34c-9.024,0-16.34,7.316-16.34,16.34
	c-9.024,0-16.34,7.316-16.34,16.34c0,9.024,7.316,16.34,16.34,16.34c0,9.024,7.316,16.34,16.34,16.34
	c9.024,0,16.34-7.316,16.34-16.34c9.024,0,16.34-7.316,16.34-16.34C231.489,396.763,224.173,389.447,215.149,389.447z"/>
<path style="fill:#FFFFFF;" d="M215.149,454.809c0-9.024-7.316-16.34-16.34-16.34c-9.024,0-16.34,7.316-16.34,16.34
	c-9.024,0-16.34,7.316-16.34,16.34s7.316,16.34,16.34,16.34c0,9.024,7.316,16.34,16.34,16.34c9.024,0,16.34-7.316,16.34-16.34
	c9.024,0,16.34-7.316,16.34-16.34S224.173,454.809,215.149,454.809z"/>
<rect x="35.404" y="302.298" style="fill:#00B9FF;" width="65.362" height="201.532"/>
<polygon style="fill:#F99A25;" points="285.957,302.298 264.17,318.638 285.957,334.979 318.638,334.979 318.638,302.298 "/>
<rect x="8.17" y="302.298" style="fill:#FFBE26;" width="277.787" height="32.681"/>
<rect x="133.447" y="291.404" style="fill:#00B9FF;" width="65.362" height="212.426"/>
<circle cx="318.638" cy="462.434" r="8.17"/>
<circle cx="350.655" cy="452.031" r="8.17"/>
<circle cx="370.437" cy="424.797" r="8.17"/>
<circle cx="266.839" cy="424.797" r="8.17"/>
<circle cx="266.839" cy="392.116" r="8.17"/>
<circle cx="266.839" cy="359.435" r="8.17"/>
<circle cx="370.448" cy="392.116" r="8.17"/>
<circle cx="370.448" cy="359.435" r="8.17"/>
<circle cx="286.622" cy="452.031" r="8.17"/>
<path d="M271.251,212.426h10.814c1.121,3.173,4.148,5.447,7.705,5.447c4.512,0,8.17-3.658,8.17-8.17v-5.447
	c0-4.512-3.658-8.17-8.17-8.17h-18.519c-4.512,0-8.17,3.658-8.17,8.17S266.739,212.426,271.251,212.426z"/>
<path d="M347.506,217.872c3.558,0,6.584-2.273,7.705-5.447h10.814c4.512,0,8.17-3.658,8.17-8.17s-3.658-8.17-8.17-8.17h-18.519
	c-4.512,0-8.17,3.658-8.17,8.17v5.447C339.336,214.214,342.994,217.872,347.506,217.872z"/>
<path d="M292.965,256.013c3.853,10.838,14.17,18.119,25.673,18.119c11.503,0,21.82-7.281,25.673-18.119
	c1.511-4.252-0.71-8.923-4.962-10.435c-4.25-1.511-8.923,0.709-10.435,4.962c-1.543,4.338-5.672,7.252-10.276,7.252
	c-4.604,0-8.734-2.914-10.276-7.252c-1.512-4.252-6.184-6.472-10.435-4.962C293.676,247.09,291.454,251.761,292.965,256.013z"/>
<path d="M318.638,81.702c13.516,0,24.511-10.995,24.511-24.511s-10.995-24.511-24.511-24.511c-13.516,0-24.511,10.995-24.511,24.511
	S305.123,81.702,318.638,81.702z M318.638,49.021c4.506,0,8.17,3.665,8.17,8.17s-3.665,8.17-8.17,8.17s-8.17-3.665-8.17-8.17
	S314.133,49.021,318.638,49.021z"/>
<path d="M476.726,329.496c-2.12-4.233-5.416-7.779-9.475-10.181c9.562-11.62,14.9-26.276,14.9-41.528
	c0-16.025-5.71-31.072-16.172-42.979c1.649-4.428,2.555-9.216,2.555-14.213c0-11.033-4.404-21.052-11.537-28.409
	c-1.217-14.046-4.52-27.659-9.846-40.621c7.783-4.111,13.104-12.287,13.104-21.685c0-13.516-10.995-24.511-24.511-24.511H375.83
	V80.859c0-13.516,10.995-24.511,24.511-24.511c13.516,0,24.511,10.995,24.511,24.511c0,4.512,3.658,8.17,8.17,8.17
	c4.512,0,8.17-3.658,8.17-8.17c0-22.526-18.325-40.851-40.851-40.851c-9.479,0-18.205,3.254-25.145,8.691
	C371.08,21.177,347.288,0,318.638,0c-28.65,0-52.442,21.177-56.557,48.699c-6.939-5.437-15.666-8.691-25.145-8.691
	c-22.526,0-40.851,18.325-40.851,40.851v25.128c-10.901,2.484-19.064,12.25-19.064,23.893c0,9.399,5.319,17.574,13.104,21.685
	c-5.326,12.962-8.629,26.576-9.846,40.621c-7.133,7.358-11.537,17.376-11.537,28.409c0,4.997,0.905,9.785,2.555,14.213
	c-10.461,11.907-16.172,26.954-16.172,42.979c0,1.817,0.105,3.633,0.257,5.447h-13.765v-24.511c0-4.512-3.658-8.17-8.17-8.17
	s-8.17,3.658-8.17,8.17v35.404h-16.34v-2.723c0-4.512-3.658-8.17-8.17-8.17c-4.512,0-8.17,3.658-8.17,8.17v2.723h-16.34v-2.723
	c0-4.512-3.658-8.17-8.17-8.17s-8.17,3.658-8.17,8.17v2.723h-16.34v-24.511c0-4.512-3.658-8.17-8.17-8.17s-8.17,3.658-8.17,8.17
	v24.511H8.17c-4.512,0-8.17,3.658-8.17,8.17v32.681c0,4.512,3.658,8.17,8.17,8.17h19.064V503.83c0,4.512,3.658,8.17,8.17,8.17
	h65.362c4.512,0,8.17-3.658,8.17-8.17V343.149h16.34V503.83c0,4.512,3.658,8.17,8.17,8.17H503.83c4.512,0,8.17-3.658,8.17-8.17
	V378.553C512,356.082,497.7,336.495,476.726,329.496z M462.979,340.426c0,4.506-3.665,8.17-8.17,8.17c-4.512,0-8.17,3.658-8.17,8.17
	c0,4.506-3.665,8.17-8.17,8.17s-8.17-3.665-8.17-8.17c0-4.512-3.658-8.17-8.17-8.17c-4.506,0-8.17-3.665-8.17-8.17
	s3.665-8.17,8.17-8.17c4.512,0,8.17-3.658,8.17-8.17c0-4.506,3.665-8.17,8.17-8.17s8.17,3.665,8.17,8.17
	c0,4.512,3.658,8.17,8.17,8.17c3.701,0,6.829,2.474,7.83,5.854c0.027,0.115,0.057,0.231,0.089,0.345
	C462.886,339.087,462.979,339.745,462.979,340.426z M454.809,479.319c-4.512,0-8.17,3.658-8.17,8.17c0,4.506-3.665,8.17-8.17,8.17
	s-8.17-3.665-8.17-8.17c0-4.512-3.658-8.17-8.17-8.17c-4.506,0-8.17-3.665-8.17-8.17s3.665-8.17,8.17-8.17
	c4.512,0,8.17-3.658,8.17-8.17c0-4.506,3.665-8.17,8.17-8.17s8.17,3.665,8.17,8.17c0,4.512,3.658,8.17,8.17,8.17
	c4.506,0,8.17,3.665,8.17,8.17S459.314,479.319,454.809,479.319z M229.314,310.468c0.033,0,48.473,0,48.473,0v16.34h-47.296
	c-0.093,0.001-0.184-0.004-0.276,0h-23.237v-16.34H229.314z M283.135,154.391c-16.628,16.091-39.023,25.354-62.539,25.354h-11.003
	c-3.941,0-7.749,0.572-11.357,1.618c1.755-9.282,4.587-18.3,8.457-26.973h76.442V154.391z M185.083,220.596
	c0-13.516,10.995-24.511,24.511-24.511h3.156c-0.207,2.718-0.324,5.446-0.324,8.17c0,4.512,3.658,8.17,8.17,8.17
	s8.17-3.658,8.17-8.17c0-2.848,0.149-5.698,0.415-8.53c29.85-2.429,57.462-17.431,75.773-41.335h27.37
	c18.311,23.904,45.922,38.905,75.772,41.335c0.266,2.831,0.415,5.682,0.415,8.53c0,4.512,3.658,8.17,8.17,8.17
	c4.512,0,8.17-3.658,8.17-8.17c0-2.725-0.117-5.453-0.324-8.17h3.156c13.516,0,24.511,10.995,24.511,24.511
	c0,13.516-10.996,24.511-24.511,24.511h-3.143c0.206-2.697,0.312-5.422,0.312-8.17c0-4.512-3.658-8.17-8.17-8.17
	c-4.512,0-8.17,3.658-8.17,8.17c0,46.8-35.963,85.341-81.702,89.484v-24.123c0-4.512-3.658-8.17-8.17-8.17h-69.307
	c-13.283-16.078-20.566-36.243-20.566-57.191c0-4.512-3.658-8.17-8.17-8.17s-8.17,3.658-8.17,8.17c0,2.738,0.13,5.46,0.338,8.17
	h-3.17C196.077,245.106,185.083,234.111,185.083,220.596z M430.584,154.391c3.869,8.671,6.701,17.69,8.456,26.973
	c-3.608-1.046-7.416-1.619-11.357-1.619h-11.003c-23.516,0-45.911-9.263-62.539-25.354H430.584z M310.468,310.468v16.34h-16.34
	v-16.34H310.468z M206.979,454.809c0,4.512,3.658,8.17,8.17,8.17c4.506,0,8.17,3.665,8.17,8.17s-3.665,8.17-8.17,8.17
	c-4.512,0-8.17,3.658-8.17,8.17V454.809z M215.149,413.957c-4.512,0-8.17,3.658-8.17,8.17v-32.681c0,4.512,3.658,8.17,8.17,8.17
	c4.506,0,8.17,3.665,8.17,8.17S219.655,413.957,215.149,413.957z M215.149,348.596c-4.512,0-8.17,3.658-8.17,8.17v-13.617h15.863
	C221.718,346.317,218.698,348.596,215.149,348.596z M222.266,494.606c10.056-3.057,17.394-12.415,17.394-23.457
	s-7.338-20.4-17.394-23.457c-1.053-3.464-2.868-6.593-5.228-9.224c2.361-2.63,4.176-5.759,5.228-9.224
	c10.056-3.057,17.394-12.415,17.394-23.457c0-11.042-7.338-20.4-17.394-23.457c-1.053-3.464-2.868-6.593-5.228-9.224
	c2.361-2.63,4.176-5.759,5.228-9.224c9.215-2.802,16.13-10.902,17.225-20.734h79.148c32.071,0,60.866-14.288,80.357-36.832
	l16.199,10.127c-0.058,0.176-0.129,0.346-0.183,0.525c-10.056,3.057-17.394,12.415-17.394,23.457c0,11.042,7.338,20.4,17.394,23.457
	c1.053,3.464,2.868,6.593,5.228,9.224c-2.361,2.63-4.176,5.759-5.228,9.224c-10.056,3.057-17.394,12.415-17.394,23.457
	c0,11.042,7.338,20.4,17.394,23.457c1.053,3.464,2.868,6.593,5.228,9.224c-2.361,2.63-4.176,5.759-5.228,9.224
	c-10.056,3.057-17.394,12.415-17.394,23.457s7.338,20.4,17.394,23.457c0.109,0.357,0.243,0.703,0.367,1.053H221.899
	C222.023,495.309,222.157,494.963,222.266,494.606z M454.809,413.957c-4.512,0-8.17,3.658-8.17,8.17c0,4.506-3.665,8.17-8.17,8.17
	s-8.17-3.665-8.17-8.17c0-4.512-3.658-8.17-8.17-8.17c-4.506,0-8.17-3.665-8.17-8.17s3.665-8.17,8.17-8.17
	c4.512,0,8.17-3.658,8.17-8.17c0-4.506,3.665-8.17,8.17-8.17s8.17,3.665,8.17,8.17c0,4.512,3.658,8.17,8.17,8.17
	c4.506,0,8.17,3.665,8.17,8.17S459.314,413.957,454.809,413.957z M465.811,277.787c0,10.637-3.465,20.887-9.719,29.281
	c-4.46-4.618-10.712-7.494-17.624-7.494c-4.866,0-9.403,1.428-13.22,3.884l-16.52-10.327c6.034-9.64,10.567-20.309,13.264-31.684
	h5.692c11.328,0,21.591-4.637,28.999-12.11C462.609,257.581,465.811,267.411,465.811,277.787z M277.787,57.191
	c0-22.526,18.325-40.851,40.851-40.851c22.526,0,40.851,18.325,40.851,40.851v48.178h-81.702V57.191z M236.936,56.348
	c13.516,0,24.511,10.995,24.511,24.511v24.511h-49.021V80.859C212.426,67.343,223.42,56.348,236.936,56.348z M201.532,121.71
	h234.213c4.506,0,8.17,3.665,8.17,8.17s-3.665,8.17-8.17,8.17H201.532c-4.506,0-8.17-3.665-8.17-8.17S197.026,121.71,201.532,121.71
	z M171.466,277.787c0-10.376,3.202-20.207,9.129-28.45c7.408,7.472,17.671,12.109,28.999,12.109h5.7
	c2.655,11.21,7.13,21.911,13.248,31.706l-1.56,0.975h-20.002v-13.617c0-4.512-3.658-8.17-8.17-8.17s-8.17,3.658-8.17,8.17v2.723
	h-18.857C171.579,281.424,171.466,279.604,171.466,277.787z M92.596,495.66H43.574V343.149h49.021V495.66z M16.34,326.809v-16.34
	h43.574v2.723c0,4.512,3.658,8.17,8.17,8.17s8.17-3.658,8.17-8.17v-2.723h16.34v2.723c0,4.512,3.658,8.17,8.17,8.17
	c4.512,0,8.17-3.658,8.17-8.17v-2.723h16.34v16.34H16.34z M141.617,299.574h23.292c0.061,0,25.73,0,25.73,0V495.66h-49.021V299.574z
	 M495.66,495.66h-34.101c0.124-0.351,0.258-0.696,0.367-1.053c10.056-3.057,17.394-12.415,17.394-23.457s-7.338-20.4-17.394-23.457
	c-1.053-3.464-2.868-6.593-5.228-9.224c2.361-2.63,4.176-5.759,5.228-9.224c10.056-3.057,17.394-12.415,17.394-23.457
	c0-11.042-7.338-20.4-17.394-23.457c-1.053-3.464-2.868-6.593-5.228-9.224c2.361-2.63,4.176-5.759,5.228-9.224
	c7.658-2.328,13.729-8.316,16.194-15.916c10.668,6.205,17.54,17.701,17.54,30.586V495.66z"/>
</svg>